<?xml version="1.0" encoding="UTF-8" standalone="no"?>
<svg
   xmlns:dc="http://purl.org/dc/elements/1.1/"
   xmlns:cc="http://creativecommons.org/ns#"
   xmlns:rdf="http://www.w3.org/1999/02/22-rdf-syntax-ns#"
   xmlns:svg="http://www.w3.org/2000/svg"
   xmlns="http://www.w3.org/2000/svg"
   xmlns:sodipodi="http://sodipodi.sourceforge.net/DTD/sodipodi-0.dtd"
   xmlns:inkscape="http://www.inkscape.org/namespaces/inkscape"
   sodipodi:docname="comportement_kpf_voxels.svg"
   inkscape:version="1.0 (4035a4fb49, 2020-05-01)"
   width="1500"
   height="1000"
   viewBox="0 0 396.87499 264.58334"
   version="1.1"
   id="svg8">
  <defs
     id="defs2">
    <marker
       inkscape:isstock="true"
       style="overflow:visible;"
       id="marker1527"
       refX="0.0"
       refY="0.0"
       orient="auto"
       inkscape:stockid="Arrow1Send">
      <path
         transform="scale(0.2) rotate(180) translate(6,0)"
         style="fill-rule:evenodd;stroke:#ff00ff;stroke-width:1pt;stroke-opacity:1;fill:#ff00ff;fill-opacity:1"
         d="M 0.0,0.0 L 5.0,-5.0 L -12.5,0.0 L 5.0,5.0 L 0.0,0.0 z "
         id="path1525" />
    </marker>
    <marker
       inkscape:isstock="true"
       style="overflow:visible;"
       id="marker1479"
       refX="0.0"
       refY="0.0"
       orient="auto"
       inkscape:stockid="Arrow1Send">
      <path
         transform="scale(0.2) rotate(180) translate(6,0)"
         style="fill-rule:evenodd;stroke:#000000;stroke-width:1pt;stroke-opacity:1;fill:#000000;fill-opacity:1"
         d="M 0.0,0.0 L 5.0,-5.0 L -12.5,0.0 L 5.0,5.0 L 0.0,0.0 z "
         id="path1477" />
    </marker>
    <marker
       inkscape:isstock="true"
       style="overflow:visible;"
       id="marker1335"
       refX="0.0"
       refY="0.0"
       orient="auto"
       inkscape:stockid="Arrow1Send">
      <path
         transform="scale(0.2) rotate(180) translate(6,0)"
         style="fill-rule:evenodd;stroke:#ff00ff;stroke-width:1pt;stroke-opacity:1;fill:#ff00ff;fill-opacity:1"
         d="M 0.0,0.0 L 5.0,-5.0 L -12.5,0.0 L 5.0,5.0 L 0.0,0.0 z "
         id="path1333" />
    </marker>
    <marker
       inkscape:isstock="true"
       style="overflow:visible;"
       id="Arrow1Send"
       refX="0.0"
       refY="0.0"
       orient="auto"
       inkscape:stockid="Arrow1Send">
      <path
         transform="scale(0.2) rotate(180) translate(6,0)"
         style="fill-rule:evenodd;stroke:#000000;stroke-width:1pt;stroke-opacity:1;fill:#000000;fill-opacity:1"
         d="M 0.0,0.0 L 5.0,-5.0 L -12.5,0.0 L 5.0,5.0 L 0.0,0.0 z "
         id="path1044" />
    </marker>
    <marker
       inkscape:isstock="true"
       style="overflow:visible"
       id="Arrow1Lstart"
       refX="0.0"
       refY="0.0"
       orient="auto"
       inkscape:stockid="Arrow1Lstart">
      <path
         transform="scale(0.8) translate(12.5,0)"
         style="fill-rule:evenodd;stroke:#000000;stroke-width:1pt;stroke-opacity:1;fill:#000000;fill-opacity:1"
         d="M 0.0,0.0 L 5.0,-5.0 L -12.5,0.0 L 5.0,5.0 L 0.0,0.0 z "
         id="path1029" />
    </marker>
    <inkscape:path-effect
       only_selected="false"
       apply_with_weight="true"
       apply_no_weight="true"
       helper_size="0"
       steps="2"
       weight="33.333333"
       lpeversion="1"
       is_visible="true"
       id="path-effect849"
       effect="bspline" />
    <inkscape:path-effect
       only_selected="false"
       apply_with_weight="true"
       apply_no_weight="true"
       helper_size="0"
       steps="2"
       weight="33.333333"
       lpeversion="1"
       is_visible="true"
       id="path-effect845"
       effect="bspline" />
    <inkscape:path-effect
       only_selected="false"
       apply_with_weight="true"
       apply_no_weight="true"
       helper_size="0"
       steps="2"
       weight="33.333333"
       lpeversion="1"
       is_visible="true"
       id="path-effect841"
       effect="bspline" />
  </defs>
  <sodipodi:namedview
     inkscape:snap-to-guides="false"
     inkscape:snap-grids="true"
     inkscape:window-maximized="1"
     inkscape:window-y="420"
     inkscape:window-x="0"
     inkscape:window-height="1022"
     inkscape:window-width="1916"
     units="px"
     showgrid="true"
     inkscape:document-rotation="0"
     inkscape:current-layer="layer1"
     inkscape:document-units="px"
     inkscape:cy="322.9523"
     inkscape:cx="438.19374"
     inkscape:zoom="0.98994949"
     inkscape:pageshadow="2"
     inkscape:pageopacity="0.0"
     borderopacity="1.0"
     bordercolor="#666666"
     pagecolor="#ffffff"
     id="base">
    <inkscape:grid
       id="grid10"
       type="xygrid" />
  </sodipodi:namedview>
  <metadata
     id="metadata5">
    <rdf:RDF>
      <cc:Work
         rdf:about="">
        <dc:format>image/svg+xml</dc:format>
        <dc:type
           rdf:resource="http://purl.org/dc/dcmitype/StillImage" />
        <dc:title></dc:title>
      </cc:Work>
    </rdf:RDF>
  </metadata>
  <g
     id="layer1"
     inkscape:groupmode="layer"
     inkscape:label="Layer 1">
    <path
       inkscape:export-ydpi="300"
       inkscape:export-xdpi="300"
       inkscape:export-filename="/home/thibault/voxel_raycast_difference.png"
       id="path1021"
       d="M 10.665443,62.912341 17.91387,62.802322 V 47.025414 l 23.67074,-0.07432 0.180027,-7.792339 H 168.63585 v 7.967686 l 7.9203,-0.101031 -7.13139,-9.073777 L 60.952522,35.420202 37.411019,35.802869 14.933303,47.124765 10.520385,59.17552 Z"
       style="fill:#00ff00;stroke:none;stroke-width:0.264583px;stroke-linecap:butt;stroke-linejoin:miter;stroke-opacity:1;fill-opacity:0.53465903" />
    <rect
       inkscape:export-ydpi="300"
       inkscape:export-xdpi="300"
       inkscape:export-filename="/home/thibault/voxel_raycast_difference.png"
       y="47.025414"
       x="17.91387"
       height="15.776908"
       width="158.64229"
       id="rect1009"
       style="fill:#00ff00;fill-opacity:0.534659;stroke:none;stroke-width:1.32292;stroke-linecap:square;stroke-miterlimit:4;stroke-dasharray:none;stroke-opacity:1" />
    <rect
       inkscape:export-ydpi="300"
       inkscape:export-xdpi="300"
       inkscape:export-filename="/home/thibault/voxel_raycast_difference.png"
       y="62.838535"
       x="9.9218731"
       height="58.869808"
       width="185.86978"
       id="rect1007"
       style="fill:#00ff00;fill-opacity:0.534659;stroke:none;stroke-width:1.32292;stroke-linecap:square;stroke-miterlimit:4;stroke-dasharray:none;stroke-opacity:1" />
    <rect
       inkscape:export-ydpi="300"
       inkscape:export-xdpi="300"
       inkscape:export-filename="/home/thibault/voxel_raycast_difference.png"
       y="15.875"
       x="10.583333"
       height="105.83334"
       width="185.20833"
       id="rect12"
       style="fill:none;stroke:#000000;stroke-width:1.32292;stroke-linecap:square;stroke-miterlimit:4;stroke-dasharray:none;stroke-opacity:1" />
    <path
       inkscape:export-ydpi="300"
       inkscape:export-xdpi="300"
       inkscape:export-filename="/home/thibault/voxel_raycast_difference.png"
       inkscape:original-d="m 170.21517,81.138834 c 4.40999,2.64e-4 8.81971,2.64e-4 13.22917,0 0.88223,3.528113 1.76416,7.055821 2.64583,10.583333 -0.88169,3.528113 -1.76362,7.055821 -2.64583,10.583333 -3.52758,1.76419 -7.05529,3.52803 -10.58333,5.29166 -2.20983,-0.47792 -5.2914,-1.76363 -7.9375,-2.64582 -0.8817,-2.64563 -1.76363,-5.291409 -2.64584,-7.937506 2.7e-4,-1.76366 2.7e-4,-3.527513 0,-5.291667 1.76419,-1.76366 3.52805,-3.527512 5.29167,-5.291667 0.88223,-1.763659 1.76416,-3.527512 2.64583,-5.291666 z"
       inkscape:path-effect="#path-effect849"
       id="path847"
       d="m 171.97917,82.02083 c 2.64599,-0.881996 7.05571,-0.881996 9.70146,0.882084 2.64575,1.764081 3.52768,5.29179 3.5276,8.819538 -7e-5,3.527749 -0.88199,7.055458 -3.08681,9.701188 -2.20482,2.64573 -5.73253,4.40958 -8.56258,4.93618 -2.83005,0.5266 -5.98918,-0.52644 -7.75319,-2.29025 -1.764,-1.76381 -2.64593,-4.409586 -3.08695,-6.614491 -0.44103,-2.204905 -0.44103,-3.968758 0.44093,-5.732797 0.88197,-1.76404 2.64582,-3.527895 3.96872,-5.291748 1.3229,-1.763854 2.20483,-3.527708 4.85082,-4.409704 z"
       style="fill:#f84400;fill-opacity:1;stroke:#000000;stroke-width:0.264583px;stroke-linecap:butt;stroke-linejoin:miter;stroke-opacity:1" />
    <path
       inkscape:export-ydpi="300"
       inkscape:export-xdpi="300"
       inkscape:export-filename="/home/thibault/voxel_raycast_difference.png"
       inkscape:original-d="m 27.781094,79.815875 c 4.409987,2.646098 8.819708,5.291931 13.229167,7.9375 2.64e-4,2.646151 2.64e-4,5.291931 0,7.9375 -1.006726,2.818625 -1.763625,5.291935 -2.645833,7.937505 -3.527584,0.88222 -7.055291,1.76415 -10.583334,2.64583 -1.763659,-1.76366 -3.527513,-3.52751 -5.291666,-5.29167 -0.881698,-3.527582 -1.763625,-7.05529 -2.645833,-10.583332 0.882226,-1.763659 1.764153,-3.527512 2.645833,-5.291666 1.764189,-1.76366 3.528042,-3.527513 5.291666,-5.291667 z"
       inkscape:path-effect="#path-effect845"
       id="path843"
       d="m 29.104166,82.02083 c 3.086962,0.441065 7.496683,3.086898 9.701389,5.732797 2.204706,2.645899 2.204706,5.291679 1.731576,8.033854 -0.473129,2.742175 -1.290812,5.195219 -3.495588,6.959019 -2.204776,1.76379 -5.732484,2.64572 -8.378296,2.20488 -2.645812,-0.44083 -4.409663,-2.20468 -5.732683,-4.85053 -1.32302,-2.645846 -2.204947,-6.173554 -2.205004,-8.819507 -5.6e-5,-2.645953 0.88187,-4.409806 2.204831,-6.173766 1.322961,-1.76396 3.086814,-3.527813 6.173775,-3.086747 z"
       style="fill:#f84400;fill-opacity:1;stroke:#000000;stroke-width:0.264583px;stroke-linecap:butt;stroke-linejoin:miter;stroke-opacity:1" />
    <path
       inkscape:export-ydpi="300"
       inkscape:export-xdpi="300"
       inkscape:export-filename="/home/thibault/voxel_raycast_difference.png"
       inkscape:original-d="m 100.54167,113.77083 c -12.346963,2.6e-4 -24.694183,2.6e-4 -37.041671,0 -4.409546,-1.76366 -8.819179,-3.52752 -13.229166,-5.29167 -0.881698,-2.64562 -1.763625,-5.2914 -2.645834,-7.9375 2.65e-4,-2.64562 2.65e-4,-5.2914 0,-7.937498 2.65e-4,-2.645622 2.65e-4,-5.291402 0,-7.9375 0.882227,-3.527584 1.764155,-7.055292 2.645834,-10.583333 2.64615,-1.76366 5.291931,-3.527512 7.9375,-5.291667 5.292037,-1.763659 10.583597,-3.527512 15.874999,-5.291666 1.764189,2.64e-4 3.528042,2.64e-4 5.291667,0 4.410075,-0.881698 8.819708,-1.763626 13.229167,-2.645834 3.528112,0.882227 7.05582,1.764155 10.583334,2.645834 4.41007,2.64e-4 8.81971,2.64e-4 13.22917,0 2.45863,0.29787 5.29193,2.64e-4 7.9375,0 3.52811,0.882226 7.05582,1.764154 10.58333,2.645833 4.41007,1.764189 8.81971,3.528041 13.22916,5.291666 2.09217,0.74149 3.52805,1.764155 5.29167,2.645834 0.88223,3.528113 1.76416,7.055821 2.64583,10.583333 2.7e-4,3.528113 2.7e-4,7.055821 0,10.583333 -0.88169,3.528113 -1.76362,7.055825 -2.64583,10.583335 -4.40954,2.64615 -8.81918,5.29193 -13.22917,7.9375 -5.2915,0.88222 -10.58306,1.76415 -15.87499,2.64583 -4.7476,-0.70163 -8.81918,-1.76363 -13.22917,-2.64583 -3.52759,2.6e-4 -7.05529,2.6e-4 -10.58333,0 z"
       inkscape:path-effect="#path-effect841"
       id="path839"
       d="m 96.132209,113.77083 c -7.937502,0 -20.284722,0 -28.663211,-0.8819 -8.37849,-0.8819 -12.788125,-2.64575 -15.434073,-4.85055 -2.645948,-2.20479 -3.527875,-4.85057 -3.9689,-7.49645 -0.441026,-2.64589 -0.441026,-5.29167 -0.441026,-7.93753 0,-2.64586 0,-5.29164 0.440958,-8.37852 0.440958,-3.08688 1.322885,-6.614588 3.086854,-9.260552 1.763969,-2.645964 4.409749,-4.409817 8.378601,-6.17373 3.968852,-1.763913 9.260412,-3.527766 12.78826,-4.409684 3.527849,-0.881918 5.291702,-0.881918 8.378521,-1.32292 3.08682,-0.441001 7.496453,-1.322928 11.465293,-1.32286 3.968839,6.8e-5 7.496547,0.881995 11.465314,1.322929 3.96877,0.440933 8.37841,0.440933 11.81245,0.440933 3.43405,0 6.26735,0 9.35421,0.44102 3.08687,0.441019 6.61458,1.322947 10.58337,2.645905 3.9688,1.322959 8.37843,3.086815 11.5683,4.461277 3.18986,1.374463 4.74763,2.153347 6.07044,4.35832 1.3228,2.204972 2.20473,5.732681 2.64566,9.260469 0.44093,3.527788 0.44093,7.055496 -7e-5,10.583269 -0.44101,3.527773 -1.32293,7.055484 -3.96875,10.142194 -2.64581,3.08672 -7.05545,5.7325 -11.90612,7.4964 -4.85068,1.7639 -10.14224,2.64583 -15.13814,2.61683 -4.99591,-0.029 -9.11512,-0.85285 -13.08393,-1.29385 -3.96881,-0.441 -7.49651,-0.441 -15.434011,-0.441 z"
       style="fill:#f84400;fill-opacity:1;stroke:#000000;stroke-width:0.264583px;stroke-linecap:butt;stroke-linejoin:miter;stroke-opacity:1" />
    <rect
       inkscape:export-ydpi="300"
       inkscape:export-xdpi="300"
       inkscape:export-filename="/home/thibault/voxel_raycast_difference.png"
       y="39.15876"
       x="41.764637"
       height="7.9676871"
       width="126.87121"
       id="rect1011"
       style="fill:#00ff00;fill-opacity:0.534659;stroke:none;stroke-width:1.32291667;stroke-linecap:square;stroke-miterlimit:4;stroke-dasharray:none;stroke-opacity:1" />
    <path
       inkscape:export-ydpi="300"
       inkscape:export-xdpi="300"
       inkscape:export-filename="/home/thibault/voxel_raycast_difference.png"
       id="path1023"
       d="m 195.79165,62.838536 -19.2355,-0.03621 0.10073,-14.630336 3.35809,12.528261 z"
       style="fill:#00ff00;stroke:none;stroke-width:0.264583px;stroke-linecap:butt;stroke-linejoin:miter;stroke-opacity:1;fill-opacity:0.53465903" />
    <path
       inkscape:export-ydpi="300"
       inkscape:export-xdpi="300"
       inkscape:export-filename="/home/thibault/voxel_raycast_difference.png"
       id="path981"
       style="fill:none;stroke:#000000;stroke-width:0.529167px"
       d="m 9.9218728,15.21354 0,107.15626 m 7.9375002,-107.15626 0,107.15626 m 7.937499,-107.15626 0,107.15626 m 7.9375,-107.15626 0,107.15626 m 7.9375,-107.15626 0,107.15626 m 7.9375,-107.15626 0,107.15626 m 7.9375,-107.15626 0,107.15626 m 7.937499,-107.15626 0,107.15626 m 7.9375,-107.15626 0,107.15626 m 7.9375,-107.15626 0,107.15626 m 7.9375,-107.15626 0,107.15626 m 7.9375,-107.15626 0,107.15626 m 7.937499,-107.15626 0,107.15626 m 7.9375,-107.15626 0,107.15626 m 7.9375,-107.15626 0,107.15626 m 7.9375,-107.15626 0,107.15626 m 7.9375,-107.15626 0,107.15626 m 7.9375,-107.15626 0,107.15626 m 7.9375,-107.15626 0,107.15626 m 7.9375,-107.15626 0,107.15626 m 7.9375,-107.15626 0,107.15626 m 7.9375,-107.15626 0,107.15626 m 7.9375,-107.15626 0,107.15626 m 7.9375,-107.15626 0,107.15626 M 9.9218728,15.21354 l 186.5312472,0 m -186.5312472,7.937499 186.5312472,0 m -186.5312472,7.9375 186.5312472,0 m -186.5312472,7.9375 186.5312472,0 m -186.5312472,7.9375 186.5312472,0 m -186.5312472,7.9375 186.5312472,0 m -186.5312472,7.937499 186.5312472,0 m -186.5312472,7.9375 186.5312472,0 m -186.5312472,7.9375 186.5312472,0 m -186.5312472,7.9375 186.5312472,0 m -186.5312472,7.9375 186.5312472,0 m -186.5312472,7.937502 186.5312472,0 m -186.5312472,7.9375 186.5312472,0 m -186.5312472,7.9375 186.5312472,0" />
    <path
       inkscape:export-ydpi="300"
       inkscape:export-xdpi="300"
       inkscape:export-filename="/home/thibault/voxel_raycast_difference.png"
       id="path1017"
       d="m 10.520385,59.17552 4.412918,-12.050755 22.477716,-11.321896 22.473862,-0.37958 61.551939,0.865683 47.98794,1.662665 7.13139,9.073777 3.45882,13.674833 15.77668,2.138289"
       style="fill:none;stroke:#0000ff;stroke-width:0.79375;stroke-linecap:butt;stroke-linejoin:miter;stroke-opacity:1;stroke-miterlimit:4;stroke-dasharray:none" />
    <path
       inkscape:export-ydpi="300"
       inkscape:export-xdpi="300"
       inkscape:export-filename="/home/thibault/voxel_raycast_difference.png"
       id="path1025"
       d="m 10.520385,59.17552 0.06295,62.53282 H 195.79165 v -58.869804 0"
       style="fill:none;stroke:#0000ff;stroke-width:0.79375;stroke-linecap:butt;stroke-linejoin:miter;stroke-opacity:1;stroke-miterlimit:4;stroke-dasharray:none" />
    <path
       inkscape:export-ydpi="300"
       inkscape:export-xdpi="300"
       inkscape:export-filename="/home/thibault/voxel_raycast_difference.png"
       id="path1331"
       d="m 100.54167,120.38542 v -5.29167"
       style="fill:none;stroke:#ff00ff;stroke-width:0.79375;stroke-linecap:butt;stroke-linejoin:miter;stroke-opacity:1;marker-end:url(#marker1335);stroke-miterlimit:4;stroke-dasharray:none" />
    <path
       inkscape:export-ydpi="300"
       inkscape:export-xdpi="300"
       inkscape:export-filename="/home/thibault/voxel_raycast_difference.png"
       id="path1523"
       d="m 100.54167,37.041666 v 23.8125"
       style="fill:none;stroke:#ff00ff;stroke-width:0.79375;stroke-linecap:butt;stroke-linejoin:miter;stroke-opacity:1;stroke-miterlimit:4;stroke-dasharray:none;marker-end:url(#marker1527)" />
    <circle
       inkscape:export-ydpi="300"
       inkscape:export-xdpi="300"
       inkscape:export-filename="/home/thibault/voxel_raycast_difference.png"
       r="1.0583333"
       cy="36.138992"
       cx="100.53864"
       id="path1643"
       style="fill:#ff0000;fill-opacity:1;stroke:none;stroke-width:0.79375;stroke-linecap:square;stroke-miterlimit:4;stroke-dasharray:none;stroke-opacity:1" />
    <path
       inkscape:export-ydpi="300"
       inkscape:export-xdpi="300"
       inkscape:export-filename="/home/thibault/voxel_raycast_difference.png"
       sodipodi:nodetypes="cc"
       id="path1475"
       d="m 100.54167,3.96875 0,30.427083"
       style="fill:none;stroke:#000000;stroke-width:0.79375;stroke-linecap:butt;stroke-linejoin:miter;stroke-miterlimit:4;stroke-dasharray:none;stroke-opacity:1;marker-end:url(#marker1479)" />
    <circle
       inkscape:export-ydpi="300"
       inkscape:export-xdpi="300"
       inkscape:export-filename="/home/thibault/voxel_raycast_difference.png"
       style="fill:#ff0000;fill-opacity:1;stroke:none;stroke-width:0.79375;stroke-linecap:square;stroke-miterlimit:4;stroke-dasharray:none;stroke-opacity:1"
       id="circle1651"
       cx="100.5287"
       cy="121.28741"
       r="1.0583333" />
    <path
       inkscape:export-ydpi="300"
       inkscape:export-xdpi="300"
       inkscape:export-filename="/home/thibault/voxel_raycast_difference.png"
       id="path1027"
       d="M 100.54167,145.52083 V 124.35417"
       style="fill:none;stroke:#000000;stroke-width:1.32292;stroke-linecap:butt;stroke-linejoin:miter;stroke-miterlimit:4;stroke-dasharray:none;stroke-opacity:1;marker-end:url(#Arrow1Send)" />
  </g>
</svg>
