<?xml version="1.0" encoding="UTF-8" standalone="no"?>
<svg
   xmlns:dc="http://purl.org/dc/elements/1.1/"
   xmlns:cc="http://creativecommons.org/ns#"
   xmlns:rdf="http://www.w3.org/1999/02/22-rdf-syntax-ns#"
   xmlns:svg="http://www.w3.org/2000/svg"
   xmlns="http://www.w3.org/2000/svg"
   xmlns:sodipodi="http://sodipodi.sourceforge.net/DTD/sodipodi-0.dtd"
   xmlns:inkscape="http://www.inkscape.org/namespaces/inkscape"
   sodipodi:docname="raytracing_principle.svg"
   inkscape:version="1.0 (4035a4fb49, 2020-05-01)"
   id="svg120"
   version="1.1"
   viewBox="0 0 264.58333 132.29167"
   height="500"
   width="1000">
  <defs
     id="defs114">
    <marker
       inkscape:isstock="true"
       style="overflow:visible"
       id="marker3441"
       refX="0.0"
       refY="0.0"
       orient="auto"
       inkscape:stockid="Arrow1Mstart">
      <path
         transform="scale(0.4) translate(10,0)"
         style="fill-rule:evenodd;stroke:#000000;stroke-width:1pt;stroke-opacity:1;fill:#000000;fill-opacity:1"
         d="M 0.0,0.0 L 5.0,-5.0 L -12.5,0.0 L 5.0,5.0 L 0.0,0.0 z "
         id="path3439" />
    </marker>
    <marker
       inkscape:isstock="true"
       style="overflow:visible"
       id="marker3371"
       refX="0.0"
       refY="0.0"
       orient="auto"
       inkscape:stockid="Arrow1Lstart">
      <path
         transform="scale(0.8) translate(12.5,0)"
         style="fill-rule:evenodd;stroke:#000000;stroke-width:1pt;stroke-opacity:1;fill:#000000;fill-opacity:1"
         d="M 0.0,0.0 L 5.0,-5.0 L -12.5,0.0 L 5.0,5.0 L 0.0,0.0 z "
         id="path3369" />
    </marker>
    <marker
       inkscape:isstock="true"
       style="overflow:visible;"
       id="marker3313"
       refX="0.0"
       refY="0.0"
       orient="auto"
       inkscape:stockid="Arrow1Lend">
      <path
         transform="scale(0.8) rotate(180) translate(12.5,0)"
         style="fill-rule:evenodd;stroke:#000000;stroke-width:1pt;stroke-opacity:1;fill:#000000;fill-opacity:1"
         d="M 0.0,0.0 L 5.0,-5.0 L -12.5,0.0 L 5.0,5.0 L 0.0,0.0 z "
         id="path3311" />
    </marker>
    <marker
       inkscape:isstock="true"
       style="overflow:visible"
       id="Arrow1Mstart"
       refX="0.0"
       refY="0.0"
       orient="auto"
       inkscape:stockid="Arrow1Mstart">
      <path
         transform="scale(0.4) translate(10,0)"
         style="fill-rule:evenodd;stroke:#000000;stroke-width:1pt;stroke-opacity:1;fill:#000000;fill-opacity:1"
         d="M 0.0,0.0 L 5.0,-5.0 L -12.5,0.0 L 5.0,5.0 L 0.0,0.0 z "
         id="path1033" />
    </marker>
    <marker
       inkscape:isstock="true"
       style="overflow:visible;"
       id="Arrow1Mend"
       refX="0.0"
       refY="0.0"
       orient="auto"
       inkscape:stockid="Arrow1Mend">
      <path
         transform="scale(0.4) rotate(180) translate(10,0)"
         style="fill-rule:evenodd;stroke:#000000;stroke-width:1pt;stroke-opacity:1;fill:#000000;fill-opacity:1"
         d="M 0.0,0.0 L 5.0,-5.0 L -12.5,0.0 L 5.0,5.0 L 0.0,0.0 z "
         id="path1036" />
    </marker>
    <inkscape:path-effect
       lpeversion="1"
       is_visible="true"
       id="path-effect3227"
       effect="spiro" />
    <marker
       inkscape:stockid="Arrow1Lend"
       orient="auto"
       refY="0.0"
       refX="0.0"
       id="marker3187"
       style="overflow:visible;"
       inkscape:isstock="true">
      <path
         id="path3185"
         d="M 0.0,0.0 L 5.0,-5.0 L -12.5,0.0 L 5.0,5.0 L 0.0,0.0 z "
         style="fill-rule:evenodd;stroke:#000000;stroke-width:1pt;stroke-opacity:1;fill:#000000;fill-opacity:1"
         transform="scale(0.8) rotate(180) translate(12.5,0)" />
    </marker>
    <inkscape:path-effect
       lpeversion="1"
       is_visible="true"
       id="path-effect2383"
       effect="spiro" />
    <marker
       inkscape:collect="always"
       inkscape:isstock="true"
       style="overflow:visible;"
       id="Arrow1Lend"
       refX="0.0"
       refY="0.0"
       orient="auto"
       inkscape:stockid="Arrow1Lend">
      <path
         transform="scale(0.8) rotate(180) translate(12.5,0)"
         style="fill-rule:evenodd;stroke:#ff0000;stroke-width:1pt;stroke-opacity:1;fill:#ff0000;fill-opacity:1"
         d="M 0.0,0.0 L 5.0,-5.0 L -12.5,0.0 L 5.0,5.0 L 0.0,0.0 z "
         id="path1030" />
    </marker>
    <marker
       inkscape:isstock="true"
       style="overflow:visible"
       id="Arrow1Lstart"
       refX="0.0"
       refY="0.0"
       orient="auto"
       inkscape:stockid="Arrow1Lstart">
      <path
         transform="scale(0.8) translate(12.5,0)"
         style="fill-rule:evenodd;stroke:#ff0000;stroke-width:1pt;stroke-opacity:1;fill:#ff0000;fill-opacity:1"
         d="M 0.0,0.0 L 5.0,-5.0 L -12.5,0.0 L 5.0,5.0 L 0.0,0.0 z "
         id="path1027" />
    </marker>
    <marker
       inkscape:isstock="true"
       style="overflow:visible;"
       id="Arrow1Send"
       refX="0.0"
       refY="0.0"
       orient="auto"
       inkscape:stockid="Arrow1Send">
      <path
         transform="scale(0.2) rotate(180) translate(6,0)"
         style="fill-rule:evenodd;stroke:#000000;stroke-width:1pt;stroke-opacity:1;fill:#000000;fill-opacity:1"
         d="M 0.0,0.0 L 5.0,-5.0 L -12.5,0.0 L 5.0,5.0 L 0.0,0.0 z "
         id="path1042" />
    </marker>
  </defs>
  <sodipodi:namedview
     inkscape:window-maximized="1"
     inkscape:window-y="420"
     inkscape:window-x="0"
     inkscape:window-height="1022"
     inkscape:window-width="1916"
     units="px"
     showgrid="true"
     inkscape:document-rotation="0"
     inkscape:current-layer="layer1"
     inkscape:document-units="px"
     inkscape:cy="189.78913"
     inkscape:cx="495.95273"
     inkscape:zoom="1.4"
     inkscape:pageshadow="2"
     inkscape:pageopacity="0.0"
     borderopacity="1.0"
     bordercolor="#666666"
     pagecolor="#ffffff"
     id="base">
    <inkscape:grid
       id="grid122"
       type="xygrid" />
  </sodipodi:namedview>
  <metadata
     id="metadata117">
    <rdf:RDF>
      <cc:Work
         rdf:about="">
        <dc:format>image/svg+xml</dc:format>
        <dc:type
           rdf:resource="http://purl.org/dc/dcmitype/StillImage" />
        <dc:title></dc:title>
      </cc:Work>
    </rdf:RDF>
  </metadata>
  <g
     id="layer1"
     inkscape:groupmode="layer"
     inkscape:label="Layer 1">
    <circle
       r="1.763889"
       cy="54.680557"
       cx="30.868055"
       id="path126"
       style="fill:#000000;fill-opacity:1;stroke:none;stroke-width:1.76389;stroke-linecap:round" />
    <path
       id="path951"
       d="m 64.822916,43.656249 -3.96875,34.395833"
       style="fill:none;stroke:#000000;stroke-width:0.79375;stroke-linecap:butt;stroke-linejoin:miter;stroke-opacity:1;stroke-miterlimit:4;stroke-dasharray:2.38125001,0.79375;stroke-dashoffset:0" />
    <path
       id="path953"
       d="M 31.75,54.239583 64.822916,43.656249"
       style="fill:none;stroke:#000000;stroke-width:0.26458333;stroke-linecap:butt;stroke-linejoin:miter;stroke-opacity:1;stroke-miterlimit:4;stroke-dasharray:none" />
    <path
       id="path955"
       d="M 60.854166,77.522916 31.75,55.562499"
       style="fill:none;stroke:#000000;stroke-width:0.264583px;stroke-linecap:butt;stroke-linejoin:miter;stroke-opacity:1" />
    <rect
       y="26.458334"
       x="190.5"
       height="44.979168"
       width="31.75"
       id="rect957"
       style="fill:#0000ff;fill-opacity:1;stroke:none;stroke-width:0.264583;stroke-linecap:round;stroke-miterlimit:4;stroke-dasharray:none;stroke-dashoffset:0" />
    <circle
       r="17.313911"
       cy="63.697372"
       cx="153.28514"
       id="path959"
       style="fill:#00ff00;fill-opacity:1;stroke:none;stroke-width:0.314798;stroke-linecap:round;stroke-miterlimit:4;stroke-dasharray:none;stroke-dashoffset:0" />
    <path
       transform="rotate(-21.865433,336.82531,-66.766411)"
       inkscape:transform-center-y="-1.4621538"
       inkscape:transform-center-x="-4.0162346"
       d="M 158.84497,47.789509 121.89829,47.954021 140.22916,15.875 Z"
       inkscape:randomized="0"
       inkscape:rounded="0"
       inkscape:flatsided="true"
       sodipodi:arg2="1.5663437"
       sodipodi:arg1="0.51914611"
       sodipodi:r2="10.665696"
       sodipodi:r1="21.331388"
       sodipodi:cy="37.206177"
       sodipodi:cx="140.32414"
       sodipodi:sides="3"
       id="path961"
       style="fill:#ff0000;fill-opacity:1;stroke:none;stroke-width:0.264583;stroke-linecap:round;stroke-miterlimit:4;stroke-dasharray:none;stroke-dashoffset:0"
       sodipodi:type="star" />
    <g
       style="fill:#ffd700;fill-opacity:1"
       id="g24"
       transform="matrix(0.16089903,0,0,0.16089903,126.66569,6.43619)">
      <path
         style="fill:#ffd700;fill-opacity:1"
         d="m 59.632,75.107 v -2.822 c 0,-4.96 2.015,-9.725 5.529,-13.073 4.396,-4.189 6.817,-9.839 6.817,-15.909 0,-12.119 -9.859,-21.978 -21.978,-21.978 -0.827,0 -1.667,0.046 -2.496,0.138 -10.5,1.161 -18.86,10.013 -19.447,20.591 -0.354,6.379 2.066,12.583 6.64,17.02 3.604,3.496 5.671,8.31 5.671,13.208 v 2.824 c 0,2.999 2.439,5.438 5.438,5.438 h 8.387 c 2.999,0.002 5.439,-2.438 5.439,-5.437 z m -4,0 c 0,0.793 -0.646,1.438 -1.438,1.438 h -8.387 c -0.793,0 -1.438,-0.646 -1.438,-1.438 v -2.824 c 0,-5.973 -2.51,-11.833 -6.886,-16.079 -3.741,-3.629 -5.721,-8.706 -5.431,-13.927 0.48,-8.65 7.312,-15.888 15.893,-16.837 0.684,-0.076 1.376,-0.114 2.057,-0.114 9.913,0 17.978,8.064 17.978,17.978 0,4.965 -1.98,9.586 -5.576,13.013 -4.302,4.099 -6.77,9.919 -6.77,15.969 v 2.821 z"
         id="path2"
         inkscape:connector-curvature="0" />
      <path
         style="fill:#ffd700;fill-opacity:1"
         d="M 56.509,82.521 H 43.491 c -0.829,0 -1.5,0.671 -1.5,1.5 0,0.829 0.671,1.5 1.5,1.5 H 56.51 c 0.829,0 1.5,-0.671 1.5,-1.5 0,-0.829 -0.672,-1.5 -1.501,-1.5 z"
         id="path4"
         inkscape:connector-curvature="0" />
      <path
         style="fill:#ffd700;fill-opacity:1"
         d="m 58.009,88.761 c 0,-0.829 -0.671,-1.5 -1.5,-1.5 H 43.491 c -0.829,0 -1.5,0.671 -1.5,1.5 0,0.829 0.671,1.5 1.5,1.5 H 56.51 c 0.828,0 1.499,-0.672 1.499,-1.5 z"
         id="path6"
         inkscape:connector-curvature="0" />
      <path
         style="fill:#ffd700;fill-opacity:1"
         d="m 14.733,43.267 h 8.643 c 0.829,0 1.5,-0.671 1.5,-1.5 0,-0.829 -0.671,-1.5 -1.5,-1.5 h -8.643 c -0.829,0 -1.5,0.671 -1.5,1.5 0,0.829 0.671,1.5 1.5,1.5 z"
         id="path8"
         inkscape:connector-curvature="0" />
      <path
         style="fill:#ffd700;fill-opacity:1"
         d="m 86.767,41.767 c 0,-0.829 -0.671,-1.5 -1.5,-1.5 h -8.643 c -0.829,0 -1.5,0.671 -1.5,1.5 0,0.829 0.671,1.5 1.5,1.5 h 8.643 c 0.829,0 1.5,-0.671 1.5,-1.5 z"
         id="path10"
         inkscape:connector-curvature="0" />
      <path
         style="fill:#ffd700;fill-opacity:1"
         d="m 48.5,6.5 v 8.643 c 0,0.829 0.671,1.5 1.5,1.5 0.829,0 1.5,-0.671 1.5,-1.5 V 6.5 C 51.5,5.671 50.829,5 50,5 49.171,5 48.5,5.671 48.5,6.5 Z"
         id="path12"
         inkscape:connector-curvature="0" />
      <path
         style="fill:#ffd700;fill-opacity:1"
         d="m 73.877,15.769 -6.111,6.111 c -0.586,0.585 -0.586,1.536 0,2.121 0.293,0.293 0.677,0.439 1.061,0.439 0.384,0 0.768,-0.146 1.061,-0.439 l 6.111,-6.111 c 0.586,-0.585 0.586,-1.536 0,-2.121 -0.587,-0.586 -1.536,-0.586 -2.122,0 z"
         id="path14"
         inkscape:connector-curvature="0" />
      <path
         style="fill:#ffd700;fill-opacity:1"
         d="m 32.234,59.533 c -0.586,-0.586 -1.535,-0.586 -2.121,0 l -6.111,6.111 c -0.586,0.585 -0.586,1.535 0,2.121 0.293,0.293 0.677,0.439 1.061,0.439 0.384,0 0.768,-0.146 1.061,-0.439 l 6.111,-6.111 c 0.585,-0.585 0.585,-1.535 -10e-4,-2.121 z"
         id="path16"
         inkscape:connector-curvature="0" />
      <path
         style="fill:#ffd700;fill-opacity:1"
         d="m 30.113,24.001 c 0.293,0.293 0.677,0.439 1.061,0.439 0.384,0 0.768,-0.146 1.061,-0.439 0.586,-0.585 0.586,-1.536 0,-2.121 l -6.111,-6.111 c -0.586,-0.586 -1.535,-0.586 -2.121,0 -0.586,0.585 -0.586,1.536 0,2.121 z"
         id="path18"
         inkscape:connector-curvature="0" />
      <path
         style="fill:#ffd700;fill-opacity:1"
         d="m 73.877,67.765 c 0.293,0.293 0.677,0.439 1.061,0.439 0.384,0 0.768,-0.146 1.061,-0.439 0.586,-0.586 0.586,-1.536 0,-2.121 l -6.111,-6.111 c -0.586,-0.586 -1.535,-0.586 -2.121,0 -0.586,0.586 -0.586,1.536 0,2.121 z"
         id="path20"
         inkscape:connector-curvature="0" />
      <path
         style="fill:#ffd700;fill-opacity:1"
         d="m 54.754,93.5 c 0,-0.829 -0.671,-1.5 -1.5,-1.5 h -6.509 c -0.829,0 -1.5,0.671 -1.5,1.5 0,0.829 0.671,1.5 1.5,1.5 h 6.509 c 0.829,0 1.5,-0.671 1.5,-1.5 z"
         id="path22"
         inkscape:connector-curvature="0" />
    </g>
    <path
       sodipodi:nodetypes="cc"
       id="path1025"
       d="M 181.23958,107.15625 33.072917,55.033334"
       style="fill:none;stroke:#ff0000;stroke-width:0.264583;stroke-linecap:butt;stroke-linejoin:miter;stroke-miterlimit:4;stroke-dasharray:none;stroke-opacity:1;marker-start:url(#Arrow1Lstart);marker-end:url(#Arrow1Lend)" />
    <circle
       r="0.66145831"
       cy="65.286324"
       cx="62.309376"
       id="path2367"
       style="fill:#000000;fill-opacity:1;stroke:#ff0000;stroke-width:0.264583;stroke-linecap:round;stroke-miterlimit:4;stroke-dasharray:none;stroke-dashoffset:0;stroke-opacity:1" />
    <text
       id="text2371"
       y="63.5"
       x="65.352081"
       style="font-style:oblique;font-size:5.64444px;line-height:1.25;font-family:Iosevka;-inkscape-font-specification:'Iosevka, Oblique';stroke-width:0.264583"
       xml:space="preserve"><tspan
         style="stroke-width:0.264583"
         y="63.5"
         x="65.352081"
         id="tspan2369"
         sodipodi:role="line">P</tspan></text>
    <text
       id="text2375"
       y="51.59375"
       x="26.458332"
       style="font-style:oblique;font-size:5.64444px;line-height:1.25;font-family:Iosevka;-inkscape-font-specification:'Iosevka, Oblique';stroke-width:0.264583"
       xml:space="preserve"><tspan
         style="stroke-width:0.264583"
         y="51.59375"
         x="26.458332"
         id="tspan2373"
         sodipodi:role="line">f</tspan></text>
    <text
       id="text2379"
       y="36.512501"
       x="51.858334"
       style="font-style:oblique;font-size:5.64444px;line-height:1.25;font-family:Iosevka;-inkscape-font-specification:'Iosevka, Oblique';stroke-width:0.264583"
       xml:space="preserve"><tspan
         style="stroke-width:0.264583"
         y="36.512501"
         x="51.858334"
         id="tspan2377"
         sodipodi:role="line">Écran</tspan></text>
    <path
       inkscape:original-d="m 66.145832,44.979166 c 0.441238,-0.440708 1.322653,1.322652 1.322917,-1.322917 2.65e-4,-2.645568 2.65e-4,-5.291401 0,-7.937499 -2.65e-4,-2.646098 -0.881679,2.65e-4 -1.322915,0"
       inkscape:path-effect="#path-effect3227"
       id="path3225"
       d="m 66.145832,44.979166 c 0.460378,-0.42098 0.901937,-0.862539 1.322917,-1.322917 0.539238,-0.589704 1.046912,-1.213477 1.448359,-1.904396 0.401447,-0.690919 0.695207,-1.452962 0.784621,-2.247024 0.08941,-0.794061 -0.03369,-1.62183 -0.418155,-2.32234 -0.384466,-0.70051 -1.041566,-1.262245 -1.814825,-1.463739 -0.431379,-0.112408 -0.891536,-0.112408 -1.322915,0"
       style="fill:none;stroke:#000000;stroke-width:0.264583px;stroke-linecap:butt;stroke-linejoin:miter;stroke-opacity:1;marker-start:url(#marker3441)" />
  </g>
</svg>
