<?xml version="1.0" encoding="UTF-8" standalone="no"?>
<!-- Created with Inkscape (http://www.inkscape.org/) -->

<svg
   xmlns:dc="http://purl.org/dc/elements/1.1/"
   xmlns:cc="http://creativecommons.org/ns#"
   xmlns:rdf="http://www.w3.org/1999/02/22-rdf-syntax-ns#"
   xmlns:svg="http://www.w3.org/2000/svg"
   xmlns="http://www.w3.org/2000/svg"
   xmlns:sodipodi="http://sodipodi.sourceforge.net/DTD/sodipodi-0.dtd"
   xmlns:inkscape="http://www.inkscape.org/namespaces/inkscape"
   width="3.70416mm"
   height="3.70417mm"
   viewBox="0 0 3.70416 3.70417"
   version="1.1"
   id="svg8"
   inkscape:version="0.92.5 (2060ec1f9f, 2020-04-08)"
   sodipodi:docname="dualScreen.svg">
  <defs
     id="defs2">
    <style
       type="text/css"
       id="current-color-scheme">.ColorScheme-Text {
        color:#363636;
      }</style>
  </defs>
  <sodipodi:namedview
     id="base"
     pagecolor="#ffffff"
     bordercolor="#666666"
     borderopacity="1.0"
     inkscape:pageopacity="0.0"
     inkscape:pageshadow="2"
     inkscape:zoom="15.839192"
     inkscape:cx="14.294764"
     inkscape:cy="1.7474439"
     inkscape:document-units="mm"
     inkscape:current-layer="layer1"
     showgrid="false"
     inkscape:window-width="1848"
     inkscape:window-height="1016"
     inkscape:window-x="72"
     inkscape:window-y="27"
     inkscape:window-maximized="1" />
  <metadata
     id="metadata5">
    <rdf:RDF>
      <cc:Work
         rdf:about="">
        <dc:format>image/svg+xml</dc:format>
        <dc:type
           rdf:resource="http://purl.org/dc/dcmitype/StillImage" />
        <dc:title></dc:title>
      </cc:Work>
    </rdf:RDF>
  </metadata>
  <g
     inkscape:label="Calque 1"
     inkscape:groupmode="layer"
     id="layer1"
     transform="translate(-110.98609,-134.8526)">
    <g
       id="g844">
      <path
         inkscape:connector-curvature="0"
         d="m 111.51525,134.8526 c -0.29316,0 -0.52916,0.23601 -0.52916,0.52917 v 2.64583 c 0,0.29316 0.236,0.52917 0.52916,0.52917 h 2.64584 c 0.29315,0 0.52916,-0.23601 0.52916,-0.52917 v -2.64583 c 0,-0.29316 -0.23601,-0.52917 -0.52916,-0.52917 z m 0,0.79375 h 2.64584 c 0.14657,0 0.26458,0.11801 0.26458,0.26459 v 2.11666 c 0,0.14658 -0.11801,0.26459 -0.26458,0.26459 h -2.64584 c -0.14658,0 -0.26458,-0.11801 -0.26458,-0.26459 v -2.11666 c 0,-0.14658 0.118,-0.26459 0.26458,-0.26459 z"
         style="color:#363636;fill:currentColor;stroke-width:0.26458332"
         class="ColorScheme-Text"
         id="path13" />
      <rect
         y="135.40619"
         x="112.76219"
         height="3.022222"
         width="0.1519655"
         id="rect23"
         style="fill:#363636;fill-opacity:1;stroke:#363636;stroke-width:0.12442964;stroke-opacity:1" />
    </g>
    <path
       inkscape:connector-curvature="0"
       d="m 116.59337,134.81919 c -0.29316,0 -0.52916,0.23601 -0.52916,0.52917 v 2.64583 c 0,0.29316 0.236,0.52917 0.52916,0.52917 h 2.64584 c 0.29315,0 0.52916,-0.23601 0.52916,-0.52917 v -2.64583 c 0,-0.29316 -0.23601,-0.52917 -0.52916,-0.52917 z m 0,0.79375 h 2.64584 c 0.14657,0 0.26458,0.11801 0.26458,0.26459 v 2.11666 c 0,0.14658 -0.11801,0.26459 -0.26458,0.26459 h -2.64584 c -0.14658,0 -0.26458,-0.11801 -0.26458,-0.26459 v -2.11666 c 0,-0.14658 0.118,-0.26459 0.26458,-0.26459 z"
       style="color:#363636;fill:currentColor;stroke-width:0.26458332"
       class="ColorScheme-Text"
       id="path836" />
    <rect
       y="135.37279"
       x="117.84031"
       height="3.022222"
       width="0.1519655"
       id="rect838"
       style="fill:#363636;fill-opacity:1;stroke:#363636;stroke-width:0.12442964;stroke-opacity:1" />
    <rect
       style="fill:#363636;fill-opacity:1;stroke:#363636;stroke-width:0.13403299;stroke-opacity:1"
       id="rect840"
       width="0.1519655"
       height="3.5067282"
       x="136.80792"
       y="-119.66966"
       transform="rotate(90)" />
  </g>
</svg>
