<?xml version="1.0" encoding="UTF-8" standalone="no"?>
<svg
   xmlns:dc="http://purl.org/dc/elements/1.1/"
   xmlns:cc="http://creativecommons.org/ns#"
   xmlns:rdf="http://www.w3.org/1999/02/22-rdf-syntax-ns#"
   xmlns:svg="http://www.w3.org/2000/svg"
   xmlns="http://www.w3.org/2000/svg"
   id="svg8"
   version="1.1"
   viewBox="0 0 3.175 3.175"
   height="3.175mm"
   width="3.175mm">
  <defs
     id="defs2">
    <style
       type="text/css"
       id="current-color-scheme">
      .ColorScheme-Text {
        color:#363636;
      }
      </style>
  </defs>
  <metadata
     id="metadata5">
    <rdf:RDF>
      <cc:Work
         rdf:about="">
        <dc:format>image/svg+xml</dc:format>
        <dc:type
           rdf:resource="http://purl.org/dc/dcmitype/StillImage" />
        <dc:title></dc:title>
      </cc:Work>
    </rdf:RDF>
  </metadata>
  <g
     transform="translate(313.68567,-49.67296)"
     id="layer1">
    <path
       style="color:#363636;fill:currentColor;fill-opacity:1;stroke:none;stroke-width:0.450014"
       d="m -312.99803,49.938636 c -0.37397,0 -0.67503,0.30106 -0.67503,0.675023 0,0.294307 0.1881,0.540915 0.45,0.633618 v 1.391445 h 1.80008 v -1.350043 c 0.2493,0 0.45,-0.200706 0.45,-0.450016 0,-0.249307 -0.2007,-0.450012 -0.45,-0.450012 -0.24932,0 -0.45004,0.200705 -0.45004,0.450012 h -0.49139 c 0.0252,-0.07065 0.0414,-0.145353 0.0414,-0.225004 0,-0.373963 -0.30107,-0.675023 -0.67502,-0.675023 m 1.57504,1.800056 0.90002,0.90003 v -1.800059 z m -1.35004,-0.450013 h 0.90002 v 0.900027 h -0.90002 z"
       class="ColorScheme-Text"
       id="path817" />
    <path
       id="path827"
       class="ColorScheme-Text"
       d="m -321.33567,45.129378 a 1.5875,1.5875026 0 0 0 -1.5875,1.5875 1.5875,1.5875026 0 0 0 1.32292,1.564762 v -0.268833 a 1.3229167,1.3229167 0 0 1 -1.05833,-1.295929 1.3229167,1.3229167 0 0 1 1.32291,-1.322917 1.3229167,1.3229167 0 0 1 1.32292,1.322917 h 0.26458 a 1.5875,1.5875026 0 0 0 -1.5875,-1.5875 m 0.1323,1.5875 c -0.21987,0 -0.39688,0.177006 -0.39688,0.396875 0,0.173037 0.1106,0.318029 0.26458,0.372533 v 0.818092 h 1.05834 v -0.79375 c 0.14658,0 0.26458,-0.118004 0.26458,-0.264584 0,-0.146579 -0.118,-0.264583 -0.26458,-0.264583 -0.14658,0 -0.26459,0.118004 -0.26459,0.264583 h -0.28892 c 0.0148,-0.04154 0.0243,-0.08546 0.0243,-0.132291 0,-0.219869 -0.17701,-0.396875 -0.39687,-0.396875 m 0.92604,1.058333 0.52916,0.529167 v -1.058334 z m -0.79375,-0.264583 h 0.52916 v 0.529166 h -0.52916 z"
       style="color:#363636;fill:currentColor;fill-opacity:1;stroke:none;stroke-width:0.26458332" />
  </g>
</svg>
