<?xml version="1.0" encoding="UTF-8" standalone="no"?>
<svg
   xmlns:dc="http://purl.org/dc/elements/1.1/"
   xmlns:cc="http://creativecommons.org/ns#"
   xmlns:rdf="http://www.w3.org/1999/02/22-rdf-syntax-ns#"
   xmlns:svg="http://www.w3.org/2000/svg"
   xmlns="http://www.w3.org/2000/svg"
   xmlns:sodipodi="http://sodipodi.sourceforge.net/DTD/sodipodi-0.dtd"
   xmlns:inkscape="http://www.inkscape.org/namespaces/inkscape"
   version="1.1"
   viewBox="0 0 16 16"
   id="svg139"
   sodipodi:docname="visible2.svg"
   inkscape:version="0.92.5 (2060ec1f9f, 2020-04-08)">
  <metadata
     id="metadata143">
    <rdf:RDF>
      <cc:Work
         rdf:about="">
        <dc:format>image/svg+xml</dc:format>
        <dc:type
           rdf:resource="http://purl.org/dc/dcmitype/StillImage" />
        <dc:title></dc:title>
      </cc:Work>
    </rdf:RDF>
  </metadata>
  <sodipodi:namedview
     pagecolor="#ffffff"
     bordercolor="#666666"
     borderopacity="1"
     objecttolerance="10"
     gridtolerance="10"
     guidetolerance="10"
     inkscape:pageopacity="0"
     inkscape:pageshadow="2"
     inkscape:window-width="1848"
     inkscape:window-height="1016"
     id="namedview141"
     showgrid="false"
     inkscape:zoom="13.09375"
     inkscape:cx="25.61642"
     inkscape:cy="12.591442"
     inkscape:window-x="72"
     inkscape:window-y="27"
     inkscape:window-maximized="1"
     inkscape:current-layer="svg139" />
  <defs
     id="defs131">
    <style
       id="current-color-scheme"
       type="text/css">.ColorScheme-Text {
        color:#363636;
      }</style>
  </defs>
  <g
     id="g148"
     transform="matrix(1.9894005,0,0,1.9894005,0.0422378,-13.812958)">
    <g
       id="g135"
       class="ColorScheme-Text"
       transform="matrix(0.90463,0,0,0.83333,0.76299,1.3333)"
       style="color:#363636;fill:currentColor">
      <path
         id="path133"
         d="M 7.998,2.0391 C 4.2281,2.043677 0.9279,4.4059 -0.0098,7.7696 a 1.042,0.95988 0 0 0 0,0.47852 c 0.94569,3.3561 4.2458,5.7106 8.0098,5.7129 a 1.042,0.95988 0 0 0 0.00195,0 c 3.7699,-0.0046 7.0701,-2.3668 8.0078,-5.7305 a 1.042,0.95988 0 0 0 0,-0.48047 c -0.94569,-3.3561 -4.2458,-5.7086 -8.0098,-5.7109 a 1.042,0.95988 0 0 0 -0.00195,0 z m 0.00195,0.96094 c 3.2948,0.00204 6.1722,2.0544 7,4.9922 -0.82087,2.9444 -3.7,5.0038 -7,5.0078 -3.2948,-0.002 -6.1722,-2.0544 -7,-4.9922 0.82087,-2.9444 3.7,-5.0038 7,-5.0078 z"
         transform="matrix(1.1054,0,0,1.2,-0.84343,-1.6)"
         inkscape:connector-curvature="0" />
    </g>
    <path
       id="path137"
       class="ColorScheme-Text"
       d="M 8,5 A 3,3 0 0 0 5,8 3,3 0 0 0 8,11 3,3 0 0 0 11,8 3,3 0 0 0 8,5 Z M 8,6 A 2,2 0 0 1 10,8 2,2 0 0 1 8,10 2,2 0 0 1 6,8 2,2 0 0 1 8,6 Z"
       inkscape:connector-curvature="0"
       style="color:#363636;fill:currentColor" />
  </g>
</svg>
